<svg width="105" height="128" version="1.1" viewBox="0 0 105 128" xmlns="http://www.w3.org/2000/svg">
    <g fill="#f0f0f0">
        <path d="m69.9 0.00218c-0.447-5e-3 -0.895-1e-3 -1.34 8e-3 -0.898 0.0198-1.8 0.0689-2.7 0.149-6.74 0.596-12.7 2.8-17.6 5.82-4.87 3-8.55 6.7-11.3 10.6-5.52 7.66-7.47 15.6-9.37 22.5-1.38 5-2.81 9.99-4.28 15 0.0404 0.107 0.187 0.493 0.236 0.572 0.127 0.204 0.328 0.438 0.531 0.597 0.521 0.41 1.76 1.01 3.25 1.32 3.09 0.638 8.23 0.259 14.4-0.897 1.1-0.207 2.18-0.428 3.26-0.655 1.2-4.11 2.37-8.22 3.51-12.3 1.92-6.95 3.73-13.1 7.07-17.8 1.66-2.3 3.69-4.24 5.89-5.6 2.17-1.33 4.67-2.16 6.86-2.36 2.32-0.205 5.05 0.255 7.28 1.27 2.26 1.03 4.33 2.75 5.65 4.76 1.34 2.02 2.07 4.49 2.04 6.97-0.0255 2.5-0.794 5.14-2.2 7.6-2.07 3.62-5.61 6.95-10 9.74 5.41 3.7 10.3 7.83 14.6 12.3 6.1-4.05 11.4-9.08 14.9-15.2 2.53-4.43 4.03-9.3 4.08-14.4 0.0519-5.08-1.36-10.2-4.47-14.9-3.12-4.7-7.82-8.76-13.9-11.5-4.56-2.08-9.69-3.34-15-3.57-0.444-0.019-0.89-0.0312-1.34-0.0359zm-53 74.8c-4.3 13.5-9.66 29.1-14.6 42.5-1.65 4.46 1.61 9.13 7.28 10.4 0.996 0.228 2 0.337 2.99 0.337 4.63 0 8.9-2.39 10.3-6.06 5.31-14.4 11-31 15.6-45.5-5.33 0.576-11.3 0.662-17.6-0.635-1.32-0.273-2.64-0.61-3.95-1.01zm10.1-41.1c-0.977 0.0507-1.96 0.122-2.95 0.242-6 0.727-12 2.77-16.7 6.57-4.83 3.88-7.82 9.19-7.29 15.1 0.447 5.05 3.37 9.37 7.48 12.6 4.04 3.18 8.93 5.08 13.8 6.1 9.67 2 18.5 0.557 25.7-0.8 5.37-1.01 10.9-2.24 16.3-3.88-5.34-5.08-11.7-9.5-18.8-13-0.823 0.169-1.65 0.333-2.49 0.491-6.27 1.18-11.6 1.66-15.4 0.889-1.8-0.372-3.29-1.05-4.15-1.73-0.793-0.623-1.23-1.47-0.559-4.44 0.666-2.96 2.12-8.05 3.53-13.1 0.444-1.61 0.904-3.3 1.41-5.03zm24.6 4.91c-0.421 1.4-0.831 2.86-1.24 4.36-1.19 4.3-2.42 8.6-3.67 12.9 12.3 6.25 22.4 15.3 28.7 25.7 6.83 11.3 9.2 24.4 6.65 36.8-0.944 4.58 3.01 8.9 8.84 9.65 5.82 0.743 11.3-2.37 12.3-6.95 3.26-15.8 0.285-32.2-8.45-46.7-8.73-14.5-23-26.6-40.7-34.6-0.783-0.355-1.6-0.704-2.43-1.05z"/>
    </g>
</svg>
